# xmcd CD database file
#
# Track frame offsets:
#	150
#	27677
#	52360
#	69605
#	90148
#	117760
#	141725
#	164228
#	181618
#	205940
#
# Disc length: 2848 seconds
#
# Revision: 0
# Processed by: cddbd v1.5.1PL2 Copyright (c) Steve Scherf et al.
# Submitted via: CDex 1.51
#
DISCID=980b1e0a
DTITLE=Cassandra Wilson - Belly of the Sun
DYEAR=2002
DGENRE=Jazz
TTITLE0=The Weight
TTITLE1=Justice
TTITLE2=Darkness On The Delta
TTITLE3=Only a dream  in Rio
TTITLE4=Just Another Parade
TTITLE5=Shelter From The Storm
TTITLE6=Drunk as Cooter Brown
TTITLE7=Show Me A Love
TTITLE8=Road So Clear
TTITLE9=Hot Tamales
EXTD=YEAR: 2002
EXTT0=
EXTT1=
EXTT2=
EXTT3=
EXTT4=
EXTT5=
EXTT6=
EXTT7=
EXTT8=
EXTT9=
PLAYORDER=
